<svg aria-hidden="true" style="position: absolute; width: 0; height: 0; overflow: hidden;" version="1.1" xmlns="http://www.w3.org/2000/svg" xmlns:xlink="http://www.w3.org/1999/xlink">
<defs>
<symbol id="icon-facebook" viewBox="0 0 32 32">
<path fill="rgba(116, 138, 5, 0.957)" style="fill: var(--color1, rgba(116, 138, 5, 0.957))" d="M16 0c8.837 0 16 7.163 16 16s-7.163 16-16 16c-8.837 0-16-7.163-16-16s7.163-16 16-16z"></path>
<path fill="#fff" style="fill: var(--color2, #fff)" d="M17.326 16.292h2.978l0.468-3.043h-3.446v-1.663c0-1.264 0.411-2.385 1.586-2.385h1.889v-2.656c-0.332-0.045-1.034-0.144-2.36-0.144-2.769 0-4.393 1.471-4.393 4.824v2.025h-2.847v3.043h2.847v8.365c0.564 0.085 1.135 0.143 1.721 0.143 0.53 0 1.047-0.049 1.558-0.118v-8.39z"></path>
</symbol>
<symbol id="icon-telegramm" viewBox="0 0 32 32">
<path fill="rgba(116, 138, 5, 0.957)" style="fill: var(--color1, rgba(116, 138, 5, 0.957))" d="M16 0c8.837 0 16 7.163 16 16s-7.163 16-16 16c-8.837 0-16-7.163-16-16s7.163-16 16-16z"></path>
<path fill="#fefefe" style="fill: var(--color3, #fefefe)" d="M22.4 10.082l-2.404 12.552c0 0-0.336 0.87-1.261 0.453l-5.547-4.405-0.026-0.013c0.749-0.697 6.56-6.107 6.814-6.352 0.393-0.38 0.149-0.606-0.307-0.319l-8.583 5.644-3.311-1.154c0 0-0.521-0.192-0.571-0.609s0.588-0.644 0.588-0.644l13.499-5.484c0 0 1.11-0.505 1.11 0.331z"></path>
</symbol>
<symbol id="icon-viber" viewBox="0 0 32 32">
<path fill="rgba(116, 138, 5, 0.957)" style="fill: var(--color1, rgba(116, 138, 5, 0.957))" d="M16 0c8.837 0 16 7.163 16 16s-7.163 16-16 16c-8.837 0-16-7.163-16-16s7.163-16 16-16z"></path>
<path fill="#fff" style="fill: var(--color2, #fff)" d="M21.003 7.637c-3.049-0.582-6.216-0.582-9.265 0-1.349 0.291-3.049 1.922-3.342 3.203-0.528 2.504-0.528 5.066 0 7.57 0.352 1.281 2.052 2.912 3.342 3.203 0.059 0 0.117 0.058 0.117 0.116v3.669c0 0.175 0.235 0.291 0.352 0.116l1.759-1.805c0 0 1.407-1.456 1.642-1.689 0 0 0.059-0.058 0.117-0.058 1.759 0.058 3.577-0.116 5.336-0.408 1.349-0.291 3.049-1.922 3.342-3.203 0.528-2.504 0.528-5.066 0-7.57-0.352-1.223-2.052-2.853-3.401-3.144zM21.062 18.584c-0.293 0.582-0.645 1.048-1.231 1.339-0.176 0.058-0.352 0.116-0.528 0.175-0.235-0.058-0.41-0.116-0.586-0.175-1.876-0.757-3.636-1.805-5.043-3.319-0.762-0.873-1.407-1.863-1.935-2.912-0.235-0.524-0.469-0.99-0.645-1.514-0.176-0.466 0.117-0.932 0.41-1.281s0.645-0.582 1.056-0.757c0.293-0.175 0.586-0.058 0.821 0.175 0.469 0.582 0.938 1.165 1.29 1.805 0.235 0.408 0.176 0.874-0.235 1.165-0.117 0.058-0.176 0.116-0.293 0.233-0.059 0.058-0.176 0.116-0.235 0.233-0.117 0.175-0.117 0.349-0.059 0.524 0.469 1.339 1.349 2.387 2.697 2.97 0.235 0.116 0.41 0.175 0.704 0.175 0.41-0.058 0.586-0.524 0.88-0.757s0.645-0.233 0.997-0.058c0.293 0.175 0.586 0.408 0.938 0.641 0.293 0.233 0.586 0.408 0.88 0.641 0.176 0.116 0.235 0.408 0.117 0.699zM18.599 14.217c-0.117 0-0.059 0 0 0-0.235 0-0.293-0.116-0.352-0.291 0-0.116 0-0.291-0.059-0.408-0.059-0.233-0.176-0.466-0.41-0.641-0.117-0.058-0.235-0.116-0.352-0.175-0.176-0.058-0.293-0.058-0.469-0.058-0.176-0.058-0.235-0.175-0.235-0.349 0-0.116 0.176-0.233 0.293-0.233 0.938 0.058 1.642 0.582 1.759 1.689 0 0.058 0 0.175 0 0.233 0 0.116-0.059 0.233-0.176 0.233zM18.013 11.655c-0.293-0.116-0.586-0.233-0.938-0.291-0.117 0-0.293-0.058-0.41-0.058-0.176 0-0.293-0.116-0.235-0.291 0-0.175 0.117-0.291 0.293-0.233 0.586 0.058 1.114 0.175 1.642 0.408 1.056 0.524 1.642 1.398 1.818 2.562 0 0.058 0 0.116 0 0.175 0 0.116 0 0.233 0 0.408 0 0.058 0 0.116 0 0.175-0.059 0.233-0.469 0.291-0.528 0 0-0.058-0.059-0.175-0.059-0.233 0-0.524-0.117-1.048-0.352-1.514-0.352-0.524-0.762-0.873-1.231-1.106zM21.179 15.148c-0.176 0-0.293-0.175-0.293-0.349 0-0.349-0.059-0.699-0.117-1.048-0.235-1.863-1.759-3.377-3.577-3.669-0.293-0.058-0.586-0.058-0.821-0.116-0.176 0-0.41 0-0.469-0.233-0.059-0.175 0.117-0.349 0.293-0.349 0.059 0 0.117 0 0.117 0 0.117 0 2.404 0.058 0 0 2.463 0.058 4.515 1.689 4.926 4.134 0.059 0.408 0.117 0.815 0.117 1.281 0.117 0.175 0 0.349-0.176 0.349z"></path>
</symbol>
<symbol id="icon-watsapp" viewBox="0 0 32 32">
<path fill="rgba(116, 138, 5, 0.957)" style="fill: var(--color1, rgba(116, 138, 5, 0.957))" d="M16 0c8.837 0 16 7.163 16 16s-7.163 16-16 16c-8.837 0-16-7.163-16-16s7.163-16 16-16z"></path>
<path fill="#fff" style="fill: var(--color2, #fff)" d="M22.341 9.65c-1.58-1.575-3.688-2.45-5.912-2.45-4.624 0-8.371 3.733-8.371 8.342 0 1.458 0.41 2.917 1.112 4.142l-1.171 4.317 4.449-1.167c1.229 0.642 2.576 0.992 3.98 0.992 4.624 0 8.371-3.733 8.371-8.342-0.059-2.158-0.878-4.258-2.459-5.833zM20.468 18.517c-0.176 0.467-0.995 0.933-1.405 0.992-0.351 0.058-0.82 0.058-1.288-0.058-0.293-0.117-0.702-0.233-1.171-0.467-2.107-0.875-3.454-2.975-3.571-3.15-0.117-0.117-0.878-1.108-0.878-2.158s0.527-1.517 0.702-1.75c0.176-0.233 0.41-0.233 0.585-0.233 0.117 0 0.293 0 0.41 0s0.293-0.058 0.468 0.35c0.176 0.408 0.585 1.458 0.644 1.517 0.059 0.117 0.059 0.233 0 0.35s-0.117 0.233-0.234 0.35c-0.117 0.117-0.234 0.292-0.293 0.35-0.117 0.117-0.234 0.233-0.117 0.408 0.117 0.233 0.527 0.875 1.171 1.458 0.819 0.7 1.463 0.933 1.698 1.050s0.351 0.058 0.468-0.058c0.117-0.117 0.527-0.583 0.644-0.817s0.293-0.175 0.468-0.117 1.229 0.583 1.405 0.7c0.234 0.117 0.351 0.175 0.41 0.233 0.059 0.175 0.059 0.583-0.117 1.050z"></path>
</symbol>
</defs>
</svg>
